<svg width="680" height="120" viewBox="0 0 680 120" fill="none" xmlns="http://www.w3.org/2000/svg" role="img" aria-label="LiveScoreFree logo night">
  <rect width="680" height="120" fill="none"/>
  <g transform="translate(6,9)">
    <path d="M18 10h104c6 0 11 5 11 11v38c0 6-5 11-11 11H18c-6 0-11-5-11-11V21c0-6 5-11 11-11Z" fill="#F7FBFF" stroke="#EAF3FF" stroke-width="8"/>
    <line x1="24" y1="3" x2="24" y2="14" stroke="#EAF3FF" stroke-width="8" stroke-linecap="round"/>
    <line x1="63" y1="3" x2="63" y2="14" stroke="#EAF3FF" stroke-width="8" stroke-linecap="round"/>
    <line x1="93" y1="3" x2="93" y2="14" stroke="#EAF3FF" stroke-width="8" stroke-linecap="round"/>
    <line x1="116" y1="3" x2="116" y2="14" stroke="#EAF3FF" stroke-width="8" stroke-linecap="round"/>
    <line x1="35" y1="34" x2="86" y2="31" stroke="#122544" stroke-width="9" stroke-linecap="round"/>
    <line x1="35" y1="51" x2="86" y2="50" stroke="#122544" stroke-width="9" stroke-linecap="round"/>
    <line x1="98" y1="31" x2="147" y2="30" stroke="#58D463" stroke-width="9" stroke-linecap="round"/>
    <line x1="98" y1="50" x2="128" y2="49" stroke="#58D463" stroke-width="9" stroke-linecap="round"/>
    <line x1="98" y1="41" x2="115" y2="41" stroke="#58D463" stroke-width="9" stroke-linecap="round"/>
    <line x1="59" y1="70" x2="56" y2="104" stroke="#EAF3FF" stroke-width="8" stroke-linecap="round"/>
  </g>
  <text x="154" y="84" font-family="Manrope, Arial, sans-serif" font-size="72" font-weight="700" fill="#EAF3FF" letter-spacing="-1.5">Livescore</text>
  <text x="424" y="84" font-family="Manrope, Arial, sans-serif" font-size="72" font-weight="700" fill="#58D463" letter-spacing="-1.5">free</text>
</svg>