<?xml version="1.0" encoding="UTF-8"?>
<svg xmlns="http://www.w3.org/2000/svg" viewBox="0 0 600 280" fill="none">

  <defs>
    <linearGradient id="hockey-bg" x1="0" y1="0" x2="1" y2="1">
      <stop offset="0%" stop-color="#45617d"/>
      <stop offset="100%" stop-color="#111922"/>
    </linearGradient>
    <radialGradient id="hockey-light" cx="50%" cy="0%" r="80%">
      <stop offset="0%" stop-color="#ffffff" stop-opacity="0.42"/>
      <stop offset="54%" stop-color="#ffffff" stop-opacity="0.08"/>
      <stop offset="100%" stop-color="#ffffff" stop-opacity="0"/>
    </radialGradient>
    <linearGradient id="hockey-frame" x1="0" y1="0" x2="1" y2="1">
      <stop offset="0%" stop-color="#3f3226"/>
      <stop offset="100%" stop-color="#161617"/>
    </linearGradient>
    <clipPath id="hockey-clip"><rect x="28" y="18" width="544" height="244" rx="30"/></clipPath>
    <filter id="hockey-glow" x="-20%" y="-20%" width="140%" height="140%">
      <feGaussianBlur stdDeviation="10"/>
    </filter>
  </defs>
  <rect width="600" height="280" fill="url(#hockey-frame)"/>
  <rect x="20" y="14" width="560" height="252" rx="34" fill="#201a16"/>
  <g clip-path="url(#hockey-clip)">
    <rect x="28" y="18" width="544" height="244" rx="30" fill="url(#hockey-bg)"/>
    <rect x="28" y="18" width="544" height="244" rx="30" fill="url(#hockey-light)"/>
    <circle cx="300" cy="30" r="180" fill="#ffffff" opacity="0.08"/>
    <rect x="28" y="176" width="544" height="86" fill="#0b1017" opacity="0.22"/>
    
  <rect x="72" y="76" width="456" height="140" rx="28" fill="#dceeff" opacity="0.18"/>
  <path d="M300 76v140M72 146h456" stroke="#ffffff" stroke-opacity="0.52" stroke-width="3"/>
  <circle cx="300" cy="146" r="24" stroke="#ef3f54" stroke-width="3" opacity="0.72"/>
  
    <g opacity="0.78">
      <circle cx="94" cy="36" r="10" fill="#ffffff"/>
      <circle cx="126" cy="36" r="10" fill="#ffffff"/>
      <circle cx="474" cy="36" r="10" fill="#ffffff"/>
      <circle cx="506" cy="36" r="10" fill="#ffffff"/>
    </g>
    <rect x="44" y="34" width="76" height="76" rx="38" fill="#cfe5ff" opacity="0.92"/>
    <circle cx="82" cy="72" r="26" fill="#ffffff" opacity="0.18"/>
    <path d="M70 72c10-12 24-12 34 0" stroke="#ffffff" stroke-width="4" stroke-linecap="round" opacity="0.72"/>
    <path d="M64 88c12 7 31 7 42 0" stroke="#ffffff" stroke-width="4" stroke-linecap="round" opacity="0.72"/>
    <text x="144" y="64" fill="#ffffff" font-family="Manrope, Arial, sans-serif" font-size="34" font-weight="800">Hockey</text>
    <text x="144" y="98" fill="#f3f6fb" font-family="Manrope, Arial, sans-serif" font-size="18" opacity="0.88">Ice arena scoreboard</text>
    <g opacity="0.22" filter="url(#hockey-glow)"><rect x="120" y="132" width="360" height="88" rx="44" fill="#6acbff"/></g>
    
  <ellipse cx="300" cy="164" rx="42" ry="16" fill="#1b2334"/>
  <ellipse cx="300" cy="156" rx="42" ry="16" fill="#2b3344"/>
  <path d="M232 170 L268 138" stroke="#d7e6ff" stroke-width="8" stroke-linecap="round"/>
  <path d="M248 180 L280 148" stroke="#d7e6ff" stroke-width="8" stroke-linecap="round"/>
  
  </g>
  <rect x="28" y="18" width="544" height="244" rx="30" stroke="#f1d9a7" stroke-opacity="0.78"/>
  <rect x="64" y="10" width="472" height="3" rx="2" fill="#fff0c6" opacity="0.82"/>
  <rect x="64" y="266" width="472" height="3" rx="2" fill="#fff0c6" opacity="0.82"/>

</svg>
