<?xml version="1.0" encoding="UTF-8"?>
<svg xmlns="http://www.w3.org/2000/svg" viewBox="0 0 600 280" fill="none">

  <defs>
    <linearGradient id="cricket-bg" x1="0" y1="0" x2="1" y2="1">
      <stop offset="0%" stop-color="#41553a"/>
      <stop offset="100%" stop-color="#141a16"/>
    </linearGradient>
    <radialGradient id="cricket-light" cx="50%" cy="0%" r="80%">
      <stop offset="0%" stop-color="#ffffff" stop-opacity="0.28"/>
      <stop offset="54%" stop-color="#ffffff" stop-opacity="0.08"/>
      <stop offset="100%" stop-color="#ffffff" stop-opacity="0"/>
    </radialGradient>
    <linearGradient id="cricket-frame" x1="0" y1="0" x2="1" y2="1">
      <stop offset="0%" stop-color="#3f3226"/>
      <stop offset="100%" stop-color="#161617"/>
    </linearGradient>
    <clipPath id="cricket-clip"><rect x="28" y="18" width="544" height="244" rx="30"/></clipPath>
    <filter id="cricket-glow" x="-20%" y="-20%" width="140%" height="140%">
      <feGaussianBlur stdDeviation="10"/>
    </filter>
  </defs>
  <rect width="600" height="280" fill="url(#cricket-frame)"/>
  <rect x="20" y="14" width="560" height="252" rx="34" fill="#201a16"/>
  <g clip-path="url(#cricket-clip)">
    <rect x="28" y="18" width="544" height="244" rx="30" fill="url(#cricket-bg)"/>
    <rect x="28" y="18" width="544" height="244" rx="30" fill="url(#cricket-light)"/>
    <circle cx="300" cy="30" r="180" fill="#ffffff" opacity="0.08"/>
    <rect x="28" y="176" width="544" height="86" fill="#0b1017" opacity="0.12"/>
    
  <rect x="232" y="60" width="136" height="160" rx="10" fill="#b89863" opacity="0.62"/>
  <path d="M250 88h100M250 192h100" stroke="#fff6e6" stroke-width="3" opacity="0.86"/>
  
    <g opacity="0.78">
      <circle cx="94" cy="36" r="10" fill="#ffffff"/>
      <circle cx="126" cy="36" r="10" fill="#ffffff"/>
      <circle cx="474" cy="36" r="10" fill="#ffffff"/>
      <circle cx="506" cy="36" r="10" fill="#ffffff"/>
    </g>
    <rect x="44" y="34" width="76" height="76" rx="38" fill="#d2aa68" opacity="0.92"/>
    <circle cx="82" cy="72" r="26" fill="#ffffff" opacity="0.18"/>
    <path d="M70 72c10-12 24-12 34 0" stroke="#ffffff" stroke-width="4" stroke-linecap="round" opacity="0.72"/>
    <path d="M64 88c12 7 31 7 42 0" stroke="#ffffff" stroke-width="4" stroke-linecap="round" opacity="0.72"/>
    <text x="144" y="64" fill="#ffffff" font-family="Manrope, Arial, sans-serif" font-size="34" font-weight="800">Cricket</text>
    <text x="144" y="98" fill="#f3f6fb" font-family="Manrope, Arial, sans-serif" font-size="18" opacity="0.88">Ball-by-ball feed</text>
    <g opacity="0.22" filter="url(#cricket-glow)"><rect x="120" y="132" width="360" height="88" rx="44" fill="#74dd83"/></g>
    
  <rect x="286" y="92" width="8" height="64" rx="4" fill="#e4cf9b"/>
  <rect x="298" y="92" width="8" height="64" rx="4" fill="#e4cf9b"/>
  <rect x="310" y="92" width="8" height="64" rx="4" fill="#e4cf9b"/>
  <rect x="286" y="86" width="32" height="6" rx="3" fill="#e4cf9b"/>
  <circle cx="350" cy="128" r="16" fill="#d94646"/>
  <path d="M360 118 C372 126, 372 138, 360 146" stroke="#f2d3d3" stroke-width="2" opacity="0.8"/>
  
  </g>
  <rect x="28" y="18" width="544" height="244" rx="30" stroke="#f1d9a7" stroke-opacity="0.78"/>
  <rect x="64" y="10" width="472" height="3" rx="2" fill="#fff0c6" opacity="0.82"/>
  <rect x="64" y="266" width="472" height="3" rx="2" fill="#fff0c6" opacity="0.82"/>

</svg>
