<?xml version="1.0" encoding="UTF-8"?>
<svg xmlns="http://www.w3.org/2000/svg" viewBox="0 0 600 280" fill="none">

  <defs>
    <linearGradient id="basketball-bg" x1="0" y1="0" x2="1" y2="1">
      <stop offset="0%" stop-color="#6e4c26"/>
      <stop offset="100%" stop-color="#1a1613"/>
    </linearGradient>
    <radialGradient id="basketball-light" cx="50%" cy="0%" r="80%">
      <stop offset="0%" stop-color="#ffffff" stop-opacity="0.28"/>
      <stop offset="54%" stop-color="#ffffff" stop-opacity="0.08"/>
      <stop offset="100%" stop-color="#ffffff" stop-opacity="0"/>
    </radialGradient>
    <linearGradient id="basketball-frame" x1="0" y1="0" x2="1" y2="1">
      <stop offset="0%" stop-color="#3f3226"/>
      <stop offset="100%" stop-color="#161617"/>
    </linearGradient>
    <clipPath id="basketball-clip"><rect x="28" y="18" width="544" height="244" rx="30"/></clipPath>
    <filter id="basketball-glow" x="-20%" y="-20%" width="140%" height="140%">
      <feGaussianBlur stdDeviation="10"/>
    </filter>
  </defs>
  <rect width="600" height="280" fill="url(#basketball-frame)"/>
  <rect x="20" y="14" width="560" height="252" rx="34" fill="#201a16"/>
  <g clip-path="url(#basketball-clip)">
    <rect x="28" y="18" width="544" height="244" rx="30" fill="url(#basketball-bg)"/>
    <rect x="28" y="18" width="544" height="244" rx="30" fill="url(#basketball-light)"/>
    <circle cx="300" cy="30" r="180" fill="#ffffff" opacity="0.08"/>
    <rect x="28" y="176" width="544" height="86" fill="#0b1017" opacity="0.12"/>
    
  <rect x="94" y="62" width="412" height="156" rx="10" fill="#c9975f" opacity="0.24"/>
  <path d="M300 62v156M94 140h412" stroke="#f2ede6" stroke-width="3" opacity="0.76"/>
  <circle cx="300" cy="140" r="24" stroke="#f2ede6" stroke-width="3" opacity="0.76"/>
  
    <g opacity="0.78">
      <circle cx="94" cy="36" r="10" fill="#ffffff"/>
      <circle cx="126" cy="36" r="10" fill="#ffffff"/>
      <circle cx="474" cy="36" r="10" fill="#ffffff"/>
      <circle cx="506" cy="36" r="10" fill="#ffffff"/>
    </g>
    <rect x="44" y="34" width="76" height="76" rx="38" fill="#ef9d3d" opacity="0.92"/>
    <circle cx="82" cy="72" r="26" fill="#ffffff" opacity="0.18"/>
    <path d="M70 72c10-12 24-12 34 0" stroke="#ffffff" stroke-width="4" stroke-linecap="round" opacity="0.72"/>
    <path d="M64 88c12 7 31 7 42 0" stroke="#ffffff" stroke-width="4" stroke-linecap="round" opacity="0.72"/>
    <text x="144" y="64" fill="#ffffff" font-family="Manrope, Arial, sans-serif" font-size="34" font-weight="800">Basketball</text>
    <text x="144" y="98" fill="#f3f6fb" font-family="Manrope, Arial, sans-serif" font-size="18" opacity="0.88">Court-side updates</text>
    <g opacity="0.22" filter="url(#basketball-glow)"><rect x="120" y="132" width="360" height="88" rx="44" fill="#ffd37c"/></g>
    
  <circle cx="300" cy="144" r="44" fill="#f59f3a"/>
  <path d="M256 144h88M300 100v88M271 112c18 16 18 48 0 64M329 112c-18 16 -18 48 0 64" stroke="#8b4b1d" stroke-width="4"/>
  
  </g>
  <rect x="28" y="18" width="544" height="244" rx="30" stroke="#f1d9a7" stroke-opacity="0.78"/>
  <rect x="64" y="10" width="472" height="3" rx="2" fill="#fff0c6" opacity="0.82"/>
  <rect x="64" y="266" width="472" height="3" rx="2" fill="#fff0c6" opacity="0.82"/>

</svg>
